<?xml version="1.0" standalone="no"?>
<!DOCTYPE svg PUBLIC "-//W3C//DTD SVG 20010904//EN"
 "http://www.w3.org/TR/2001/REC-SVG-20010904/DTD/svg10.dtd">
<svg version="1.0" xmlns="http://www.w3.org/2000/svg"
 width="96.000000pt" height="96.000000pt" viewBox="0 0 96.000000 96.000000"
 preserveAspectRatio="xMidYMid meet">
<metadata>
Created by potrace 1.14, written by Peter Selinger 2001-2017
</metadata>
<g transform="translate(0.000000,96.000000) scale(0.100000,-0.100000)"
fill="#000000" stroke="none">
<path d="M121 810 c-8 -16 -8 -27 3 -110 5 -30 9 -66 11 -80 4 -33 52 -221 74
-290 l18 -55 206 -3 205 -2 6 28 c6 24 15 30 81 51 161 50 233 152 175 246
-26 41 -68 59 -125 52 -39 -4 -45 -2 -41 12 10 32 17 161 9 162 -4 1 -145 2
-311 3 -263 1 -305 -1 -311 -14z m737 -223 c33 -31 30 -86 -7 -126 -27 -29
-101 -69 -159 -86 -20 -6 -23 -4 -18 12 3 10 15 58 27 107 19 75 26 91 51 106
34 20 74 16 106 -13z"/>
<path d="M40 216 c0 -19 67 -82 110 -103 52 -24 481 -26 552 -2 51 17 134 91
123 109 -4 6 -144 10 -396 10 -325 0 -389 -2 -389 -14z"/>
</g>
</svg>
